<svg id="svg" version="1.1" xmlns="http://www.w3.org/2000/svg" xmlns:xlink="http://www.w3.org/1999/xlink" width="400" height="479.76101568334576" viewBox="0, 0, 400,479.76101568334576"><g id="svgg"><path id="path0" d="M0.000 451.083 L 0.000 452.875 1.046 452.875 L 2.091 452.875 2.091 459.842 C 2.091 468.036,2.279 468.924,4.474 471.119 C 7.943 474.588,14.639 474.477,17.940 470.897 C 20.070 468.585,20.141 468.256,20.257 460.119 L 20.360 452.875 21.383 452.875 L 22.405 452.875 22.405 451.083 L 22.405 449.291 20.015 449.291 C 16.293 449.291,16.432 448.971,16.423 457.580 C 16.413 467.970,15.630 469.744,11.053 469.744 C 6.644 469.744,5.975 468.246,5.975 458.379 C 5.975 449.077,6.059 449.291,2.368 449.291 L 0.000 449.291 0.000 451.083 M46.004 451.382 L 46.004 453.473 47.797 453.473 L 49.589 453.473 49.589 451.382 L 49.589 449.291 47.797 449.291 L 46.004 449.291 46.004 451.382 M117.700 451.382 L 117.700 453.473 119.642 453.473 L 121.583 453.473 121.583 451.382 L 121.583 449.291 119.642 449.291 L 117.700 449.291 117.700 451.382 M178.239 449.837 C 177.869 450.245,177.745 450.962,177.745 452.675 L 177.745 454.966 179.537 454.966 L 181.329 454.966 181.329 453.921 L 181.329 452.875 183.570 452.875 L 185.810 452.875 185.810 463.032 L 185.810 473.189 187.901 473.189 L 189.993 473.189 189.993 463.032 L 189.993 452.875 192.233 452.875 L 194.473 452.875 194.473 453.921 L 194.473 454.966 196.266 454.966 L 198.058 454.966 198.058 452.623 C 198.058 449.080,198.704 449.291,187.850 449.291 C 179.397 449.291,178.697 449.330,178.239 449.837 M126.960 453.323 L 126.960 455.564 125.915 455.564 L 124.869 455.564 124.869 457.356 L 124.869 459.149 125.915 459.149 L 126.960 459.149 126.960 463.938 C 126.960 470.377,127.709 472.081,130.961 473.047 C 134.197 474.008,135.026 473.664,135.026 471.365 L 135.026 469.604 133.856 469.604 C 131.183 469.604,130.844 468.900,130.844 463.346 L 130.844 459.149 132.786 459.149 L 134.727 459.149 134.727 457.356 L 134.727 455.564 132.786 455.564 L 130.844 455.564 130.844 453.323 L 130.844 451.083 128.902 451.083 L 126.960 451.083 126.960 453.323 M30.947 456.146 L 29.272 457.027 28.541 456.296 C 27.894 455.648,27.549 455.564,25.555 455.564 L 23.301 455.564 23.301 457.356 L 23.301 459.149 24.347 459.149 L 25.392 459.149 25.392 466.169 L 25.392 473.189 27.334 473.189 L 29.276 473.189 29.276 468.400 C 29.276 462.133,30.214 459.942,33.248 459.125 C 36.524 458.243,37.043 459.127,37.043 465.593 C 37.043 472.827,37.227 473.189,40.906 473.189 L 43.017 473.189 43.017 471.397 L 43.017 469.604 41.995 469.604 L 40.974 469.604 40.875 464.152 C 40.784 459.084,40.729 458.623,40.093 457.601 C 38.561 455.137,34.188 454.442,30.947 456.146 M75.802 455.691 C 71.073 457.379,68.874 463.460,71.176 468.487 C 73.626 473.839,80.673 475.314,85.652 471.516 L 86.647 470.757 86.024 469.658 C 84.707 467.335,84.651 467.298,83.720 468.169 C 80.938 470.772,76.780 470.382,75.067 467.358 C 73.931 465.353,73.737 465.422,80.508 465.422 L 86.632 465.422 86.632 463.677 C 86.632 457.356,81.579 453.630,75.802 455.691 M96.395 455.698 C 95.768 455.922,95.010 456.327,94.709 456.599 C 94.197 457.062,94.115 457.045,93.398 456.329 C 92.713 455.643,92.400 455.564,90.380 455.564 L 88.125 455.564 88.125 457.356 L 88.125 459.149 89.171 459.149 L 90.217 459.149 90.217 466.169 L 90.217 473.189 92.133 473.189 L 94.050 473.189 94.150 468.185 C 94.283 461.480,95.459 459.223,98.751 459.351 L 100.075 459.402 100.075 457.518 C 100.075 455.158,99.168 454.709,96.395 455.698 M104.259 455.917 C 99.457 458.395,100.691 463.378,106.738 465.925 C 110.280 467.417,111.029 468.209,109.933 469.305 C 108.673 470.566,105.137 469.771,103.662 467.896 L 103.011 467.068 101.850 468.411 C 100.415 470.072,100.415 470.050,101.848 471.412 C 106.013 475.375,113.894 473.707,114.329 468.770 C 114.570 466.035,113.681 464.973,109.397 462.883 C 104.688 460.584,103.969 458.850,107.725 458.850 C 109.587 458.850,109.933 459.065,109.933 460.226 L 109.933 461.240 111.875 461.240 L 113.816 461.240 113.816 459.760 C 113.816 455.856,108.511 453.723,104.259 455.917 M140.553 455.697 C 138.667 456.391,138.013 457.361,138.013 459.464 L 138.013 461.240 139.937 461.240 L 141.861 461.240 141.954 460.130 C 142.148 457.798,146.516 458.260,147.123 460.677 C 147.338 461.535,146.614 461.837,144.344 461.837 C 139.654 461.837,136.027 465.206,136.663 468.972 C 137.324 472.882,142.400 474.927,146.187 472.810 C 147.589 472.027,147.604 472.026,148.184 472.605 C 148.659 473.081,149.183 473.189,151.008 473.189 L 153.249 473.189 153.249 471.397 L 153.249 469.604 152.222 469.604 L 151.196 469.604 151.102 464.451 C 150.994 458.536,150.707 457.558,148.682 456.218 C 147.203 455.239,142.600 454.944,140.553 455.697 M157.422 455.937 C 152.583 458.382,154.001 463.458,160.242 466.035 C 163.599 467.422,164.249 468.163,163.107 469.305 C 161.801 470.611,158.888 469.990,157.041 468.013 L 156.195 467.107 155.033 468.430 C 153.615 470.046,153.621 469.957,154.846 471.181 C 158.810 475.145,166.593 474.064,167.463 469.429 C 167.981 466.670,166.796 464.713,163.773 463.336 C 158.665 461.009,158.089 460.536,159.058 459.465 C 159.454 459.027,159.982 458.850,160.888 458.850 C 162.762 458.850,163.107 459.064,163.107 460.226 L 163.107 461.240 165.049 461.240 L 166.990 461.240 166.990 459.731 C 166.990 455.796,161.787 453.732,157.422 455.937 M201.195 455.697 C 199.310 456.391,198.656 457.361,198.656 459.464 L 198.656 461.240 200.597 461.240 L 202.539 461.240 202.539 460.212 C 202.539 457.968,207.227 458.235,207.798 460.511 C 208.052 461.524,208.074 461.513,205.083 461.853 C 199.573 462.479,196.660 465.142,197.335 468.936 C 198.074 473.094,203.732 475.145,207.351 472.568 L 208.191 471.970 208.801 472.580 C 209.306 473.085,209.794 473.189,211.650 473.189 L 213.891 473.189 213.891 471.397 L 213.891 469.604 212.845 469.604 L 211.800 469.604 211.800 464.620 C 211.800 458.819,211.449 457.625,209.335 456.225 C 207.845 455.239,203.250 454.941,201.195 455.697 M222.758 455.698 C 222.131 455.922,221.373 456.327,221.072 456.599 C 220.560 457.062,220.478 457.045,219.761 456.329 C 219.076 455.643,218.763 455.564,216.742 455.564 L 214.488 455.564 214.488 457.356 L 214.488 459.149 215.534 459.149 L 216.580 459.149 216.580 466.169 L 216.580 473.189 218.496 473.189 L 220.412 473.189 220.512 468.335 C 220.652 461.588,221.862 459.225,225.114 459.351 L 226.438 459.402 226.438 457.518 C 226.438 455.158,225.531 454.709,222.758 455.698 M254.929 456.149 L 253.399 457.027 252.711 456.295 C 252.104 455.648,251.772 455.564,249.836 455.564 L 247.647 455.564 247.647 457.356 L 247.647 459.149 248.544 459.149 L 249.440 459.149 249.440 466.169 L 249.440 473.189 251.382 473.189 L 253.323 473.189 253.331 468.932 C 253.343 461.788,254.772 458.850,258.236 458.850 C 260.275 458.850,260.493 459.615,260.493 466.753 L 260.493 473.189 262.405 473.189 L 264.317 473.189 264.422 468.036 C 264.554 461.512,265.864 458.850,268.943 458.850 C 271.174 458.850,271.368 459.403,271.546 466.271 C 271.726 473.253,271.692 473.189,275.313 473.189 L 277.521 473.189 277.521 471.397 L 277.521 469.604 276.475 469.604 L 275.429 469.604 275.428 464.899 C 275.426 459.712,275.196 458.432,274.013 457.026 C 271.966 454.594,266.977 454.633,264.355 457.103 L 263.587 457.826 263.054 457.119 C 261.459 455.005,257.705 454.557,254.929 456.149 M282.795 455.701 C 280.747 456.431,280.209 457.190,280.209 459.350 L 280.209 461.240 282.001 461.240 L 283.794 461.240 283.794 460.200 C 283.794 459.308,283.911 459.134,284.615 458.980 C 285.067 458.881,285.619 458.743,285.842 458.673 C 286.900 458.340,288.616 459.178,289.062 460.244 C 289.620 461.580,289.709 461.519,286.742 461.832 C 280.977 462.441,278.397 464.643,278.806 468.605 C 279.236 472.772,284.376 475.050,288.343 472.833 C 289.643 472.106,289.687 472.102,290.351 472.639 C 290.873 473.062,291.539 473.189,293.237 473.189 L 295.444 473.189 295.444 471.397 L 295.444 469.604 294.428 469.604 L 293.412 469.604 293.300 464.451 C 293.163 458.128,292.687 456.976,289.699 455.727 C 288.317 455.150,284.383 455.135,282.795 455.701 M304.556 455.626 C 304.063 455.798,303.223 456.265,302.689 456.663 C 301.951 457.213,301.718 457.279,301.718 456.940 C 301.718 456.051,300.478 455.564,298.216 455.564 L 296.042 455.564 296.042 457.356 L 296.042 459.149 297.087 459.149 L 298.133 459.149 298.133 466.169 L 298.133 473.189 300.075 473.189 L 302.016 473.189 302.016 468.174 C 302.016 461.576,302.946 459.618,306.386 458.972 C 309.249 458.435,309.783 459.614,309.783 466.472 C 309.783 473.068,309.848 473.189,313.390 473.189 L 315.758 473.189 315.758 471.397 L 315.758 469.604 314.712 469.604 L 313.667 469.604 313.665 464.899 C 313.663 458.574,313.029 456.738,310.479 455.673 C 309.345 455.199,305.856 455.171,304.556 455.626 M320.687 455.827 C 318.867 456.663,318.353 457.415,318.205 459.459 L 318.076 461.240 320.054 461.240 L 322.031 461.240 322.031 460.214 C 322.031 458.002,326.762 458.190,327.350 460.425 C 327.645 461.545,327.293 461.755,325.019 461.811 C 319.261 461.954,315.648 465.822,317.272 470.108 C 318.463 473.252,323.393 474.672,326.597 472.794 C 327.919 472.020,327.935 472.018,328.463 472.601 C 328.906 473.091,329.387 473.189,331.338 473.189 L 333.682 473.189 333.682 471.397 L 333.682 469.604 332.636 469.604 L 331.591 469.604 331.591 465.177 C 331.591 458.786,330.885 456.959,327.941 455.729 C 326.340 455.060,322.236 455.116,320.687 455.827 M339.484 455.689 C 333.469 458.308,333.289 469.221,339.208 472.390 C 340.804 473.244,344.687 473.300,346.183 472.490 L 347.182 471.949 346.965 472.938 C 346.311 475.916,343.089 477.024,339.286 475.579 C 337.263 474.810,337.445 474.744,336.712 476.508 C 335.947 478.348,335.957 478.369,338.030 479.144 C 341.589 480.476,346.506 479.824,348.720 477.727 C 350.749 475.806,350.849 475.317,350.956 466.841 L 351.053 459.149 351.927 459.149 C 352.796 459.149,352.801 459.138,352.801 457.356 L 352.801 455.564 350.776 455.564 C 349.464 455.564,348.527 455.721,348.115 456.010 C 347.542 456.411,347.348 456.396,346.181 455.867 C 344.635 455.165,340.914 455.066,339.484 455.689 M358.775 455.474 C 356.208 456.403,355.489 457.334,355.489 459.731 L 355.489 461.240 357.431 461.240 L 359.373 461.240 359.373 460.208 C 359.373 458.437,362.881 458.049,364.163 459.678 C 365.454 461.319,365.098 461.581,361.039 461.979 C 354.945 462.578,352.100 467.857,355.750 471.796 C 357.711 473.913,361.870 474.283,364.253 472.553 L 365.100 471.938 365.766 472.564 C 366.314 473.078,366.811 473.189,368.578 473.189 L 370.724 473.189 370.724 471.397 C 370.724 469.620,370.717 469.604,369.863 469.604 L 369.001 469.604 368.875 464.600 C 368.717 458.293,368.165 456.933,365.271 455.725 C 364.199 455.277,359.792 455.107,358.775 455.474 M379.923 455.560 C 379.478 455.695,378.734 456.075,378.270 456.405 L 377.427 457.006 376.733 456.285 C 376.122 455.650,375.774 455.564,373.830 455.564 L 371.621 455.564 371.621 457.356 L 371.621 459.149 372.517 459.149 L 373.413 459.149 373.413 466.169 L 373.413 473.189 375.355 473.189 L 377.296 473.189 377.296 469.496 C 377.296 462.196,378.659 459.223,381.948 459.351 L 383.271 459.402 383.271 457.518 C 383.271 455.254,382.478 454.790,379.923 455.560 M388.051 455.474 C 385.483 456.403,384.765 457.334,384.765 459.731 L 384.765 461.240 386.706 461.240 L 388.648 461.240 388.648 460.208 C 388.648 459.277,388.753 459.148,389.729 458.878 C 391.779 458.312,394.025 459.333,394.025 460.830 C 394.025 461.568,393.804 461.637,390.315 461.979 C 385.923 462.411,383.568 464.574,383.571 468.176 C 383.574 472.695,389.653 475.367,393.528 472.553 L 394.376 471.938 395.041 472.564 C 395.589 473.078,396.086 473.189,397.853 473.189 L 400.000 473.189 400.000 471.397 C 400.000 469.620,399.992 469.604,399.138 469.604 L 398.277 469.604 398.151 464.600 C 397.992 458.293,397.440 456.933,394.547 455.725 C 393.474 455.277,389.067 455.107,388.051 455.474 M43.913 457.356 L 43.913 459.149 44.959 459.149 L 46.004 459.149 46.004 465.519 C 46.004 473.302,45.950 473.189,49.683 473.189 L 51.979 473.189 51.979 471.397 L 51.979 469.604 50.950 469.604 L 49.921 469.604 49.830 463.155 C 49.720 455.400,49.800 455.564,46.121 455.564 L 43.913 455.564 43.913 457.356 M52.278 457.356 C 52.278 459.018,52.327 459.149,52.952 459.149 C 53.556 459.149,53.913 459.883,56.336 466.094 L 59.045 473.040 60.952 473.040 L 62.860 473.040 65.559 466.094 C 67.971 459.886,68.329 459.149,68.931 459.149 C 69.555 459.149,69.604 459.017,69.604 457.356 L 69.604 455.564 67.948 455.564 C 65.705 455.564,65.253 456.079,63.486 460.654 C 60.714 467.829,61.038 467.169,60.698 466.318 C 60.534 465.907,59.644 463.622,58.721 461.240 C 56.728 456.096,56.276 455.564,53.904 455.564 L 52.278 455.564 52.278 457.356 M115.907 457.356 L 115.907 459.149 116.953 459.149 L 117.999 459.149 117.999 465.571 C 117.999 473.370,117.917 473.189,121.434 473.189 L 123.674 473.189 123.674 471.397 L 123.674 469.604 122.778 469.604 L 121.882 469.604 121.882 463.824 C 121.882 455.845,121.750 455.564,118.018 455.564 L 115.907 455.564 115.907 457.356 M227.334 457.356 L 227.334 459.149 228.356 459.149 L 229.377 459.149 229.476 464.600 C 229.568 469.713,229.618 470.122,230.277 471.182 C 231.945 473.865,236.700 474.480,239.753 472.408 L 240.837 471.673 241.539 472.431 C 242.172 473.113,242.466 473.189,244.497 473.189 L 246.751 473.189 246.751 471.397 L 246.751 469.604 245.706 469.604 L 244.660 469.604 244.660 462.584 L 244.660 455.564 242.718 455.564 L 240.777 455.564 240.770 460.568 C 240.762 466.842,240.122 468.552,237.397 469.584 C 234.027 470.861,233.308 469.746,233.308 463.240 C 233.308 455.916,233.131 455.564,229.445 455.564 L 227.334 455.564 227.334 457.356 M80.271 458.992 C 81.031 459.210,82.450 460.785,82.450 461.412 C 82.450 461.758,81.725 461.837,78.558 461.837 L 74.667 461.837 75.103 460.994 C 75.664 459.911,76.205 459.473,77.592 458.981 C 78.685 458.593,78.885 458.594,80.271 458.992 M344.852 459.303 C 347.935 460.766,347.808 467.552,344.669 469.098 C 341.024 470.893,337.580 466.267,339.193 461.743 C 340.125 459.129,342.410 458.144,344.852 459.303 M147.274 465.581 C 147.274 467.172,145.647 469.405,144.119 469.909 C 141.460 470.786,139.474 467.857,141.635 466.245 C 143.081 465.166,147.274 464.672,147.274 465.581 M207.916 465.736 C 207.916 467.234,206.271 469.411,204.761 469.909 C 202.103 470.786,200.116 467.857,202.277 466.245 C 203.888 465.044,207.916 464.680,207.916 465.736 M289.322 466.094 C 288.608 469.650,284.332 471.388,282.897 468.706 C 281.896 466.837,284.231 465.235,288.075 465.154 L 289.517 465.123 289.322 466.094 M327.521 465.945 C 326.664 469.509,323.350 471.299,321.528 469.180 C 319.749 467.112,322.001 465.204,326.294 465.143 C 327.700 465.123,327.716 465.134,327.521 465.945 M364.738 466.220 C 364.038 469.324,360.769 471.038,358.900 469.282 C 356.881 467.386,359.283 465.200,363.449 465.144 L 364.986 465.123 364.738 466.220 M394.029 466.151 C 393.286 469.449,390.142 471.130,388.175 469.282 C 386.157 467.386,388.559 465.200,392.724 465.144 L 394.261 465.123 394.029 466.151 " stroke="none" fill="#545454" fill-rule="evenodd"></path><path id="path1" d="M195.668 0.340 C 182.186 4.023,165.095 11.376,147.125 21.226 C 144.969 22.408,135.479 28.064,133.383 29.416 C 130.038 31.574,115.047 41.560,113.518 42.648 C 105.733 48.189,101.181 51.524,96.938 54.791 C 92.700 58.055,81.794 66.649,81.553 66.913 C 81.471 67.003,79.858 68.349,77.969 69.903 C 76.079 71.457,74.466 72.801,74.384 72.889 C 74.302 72.977,72.890 74.187,71.247 75.579 C 69.604 76.970,68.193 78.181,68.111 78.268 C 68.028 78.356,66.953 79.299,65.721 80.364 C 64.488 81.429,63.413 82.369,63.331 82.454 C 63.249 82.538,62.047 83.614,60.661 84.844 C 59.274 86.074,57.919 87.282,57.649 87.528 C 57.380 87.774,55.827 89.186,54.198 90.665 C 49.685 94.764,33.714 110.295,33.536 110.757 C 33.192 111.654,34.537 126.217,35.723 134.429 C 38.567 154.128,41.730 169.657,46.189 185.810 C 46.620 187.371,47.342 189.993,47.795 191.636 C 50.402 201.107,54.689 214.649,57.960 223.749 C 58.639 225.639,59.308 227.521,59.446 227.931 C 59.666 228.588,60.589 231.109,62.454 236.146 C 62.758 236.968,63.291 238.379,63.638 239.283 C 63.985 240.187,64.723 242.136,65.279 243.615 C 67.796 250.315,70.830 258.036,72.439 261.837 C 73.204 263.645,74.007 265.594,74.223 266.169 C 74.439 266.744,75.508 269.268,76.599 271.778 C 78.563 276.299,79.317 277.994,80.989 281.649 C 81.464 282.687,81.852 283.581,81.852 283.635 C 81.852 283.776,84.647 289.707,88.663 298.085 C 90.579 302.083,92.351 305.464,92.601 305.596 C 93.215 305.921,106.320 308.664,111.875 309.629 C 114.339 310.057,117.834 310.665,119.642 310.980 C 123.736 311.693,130.091 312.607,135.176 313.214 C 137.311 313.469,140.134 313.806,141.449 313.963 C 161.394 316.345,189.644 317.389,210.470 316.514 C 246.312 315.009,270.497 311.998,301.435 305.187 C 314.074 302.405,313.728 302.551,315.434 299.279 C 316.149 297.909,317.311 295.713,318.016 294.399 C 321.432 288.035,330.103 268.701,332.805 261.423 C 333.270 260.172,333.936 258.409,334.286 257.506 C 334.635 256.602,335.034 255.527,335.171 255.116 C 335.309 254.705,335.846 253.226,336.366 251.830 C 341.801 237.227,347.763 217.894,351.566 202.539 C 353.072 196.457,353.548 194.332,355.780 183.719 C 356.420 180.680,357.079 177.588,357.245 176.848 C 360.843 160.874,366.527 120.586,366.539 110.969 L 366.542 108.868 360.344 102.750 C 349.542 92.088,341.401 84.189,338.011 81.084 C 333.653 77.091,326.069 70.464,323.506 68.409 C 322.789 67.834,321.727 66.956,321.146 66.457 C 319.545 65.082,313.047 59.983,307.863 56.033 C 299.941 49.999,285.569 40.127,277.371 35.089 C 257.222 22.709,239.186 13.742,219.659 6.398 C 206.962 1.623,198.653 -0.476,195.668 0.340 M201.942 8.193 C 210.835 10.820,215.488 12.442,224.048 15.902 C 234.198 20.005,245.854 25.572,256.908 31.599 C 284.195 46.474,312.438 67.024,336.968 89.852 C 343.625 96.048,358.714 111.223,359.013 112.024 C 359.485 113.287,357.426 132.557,355.314 146.639 C 353.346 159.758,349.957 177.688,347.406 188.479 C 347.073 189.886,346.520 192.248,346.177 193.727 C 342.016 211.666,335.885 232.439,330.394 247.199 C 330.089 248.021,329.214 250.373,328.450 252.427 C 323.816 264.888,318.715 276.606,312.707 288.596 C 308.659 296.675,309.347 295.900,305.452 296.766 C 303.645 297.168,299.477 298.101,296.191 298.838 C 260.465 306.857,214.222 310.972,177.894 309.363 C 149.163 308.091,130.232 305.916,105.900 301.092 C 97.016 299.330,97.282 299.428,96.468 297.623 C 96.113 296.835,93.502 291.150,90.667 284.989 C 83.889 270.257,84.032 270.570,82.834 267.812 C 79.801 260.824,74.777 248.466,72.572 242.569 C 72.049 241.173,71.360 239.358,71.039 238.536 C 70.718 237.715,70.343 236.706,70.206 236.296 C 70.069 235.885,69.529 234.406,69.007 233.010 C 68.484 231.613,67.947 230.134,67.812 229.724 C 67.677 229.313,66.872 227.028,66.024 224.645 C 62.074 213.555,57.319 198.854,54.961 190.441 C 54.270 187.976,53.458 185.086,53.156 184.018 C 47.404 163.668,43.768 143.662,41.335 118.965 L 40.797 113.508 43.774 110.500 C 46.547 107.698,55.340 99.268,58.713 96.178 C 63.849 91.471,66.536 89.084,75.131 81.593 C 99.547 60.312,130.774 38.283,154.892 25.325 C 168.205 18.172,178.702 13.561,191.486 9.251 C 198.679 6.825,197.659 6.928,201.942 8.193 M199.091 63.589 C 195.615 65.709,194.535 70.080,196.405 74.459 C 196.614 74.947,196.210 74.982,190.249 74.986 C 182.395 74.992,183.112 74.509,182.645 80.106 C 182.435 82.627,181.655 91.815,180.913 100.523 C 179.663 115.178,179.298 120.041,178.669 130.396 C 178.407 134.693,178.411 134.706,180.357 136.860 C 181.862 138.527,183.540 139.423,186.760 140.280 C 192.112 141.706,194.647 143.263,199.767 148.269 C 202.349 150.793,202.849 151.165,203.011 150.683 C 204.479 146.286,207.209 144.144,216.343 140.225 C 220.245 138.551,221.846 137.577,223.484 135.883 C 226.056 133.222,226.004 133.631,225.120 122.976 C 224.132 111.084,222.763 94.116,221.958 83.794 C 221.612 79.358,221.273 75.560,221.204 75.355 C 221.109 75.070,219.401 74.981,214.018 74.981 C 207.407 74.981,206.970 74.948,207.180 74.459 C 210.082 67.663,204.566 60.250,199.091 63.589 M221.434 63.846 C 220.173 64.002,219.863 63.572,224.747 68.456 C 227.104 70.813,229.624 73.461,230.349 74.341 C 231.073 75.220,231.917 76.229,232.224 76.581 C 239.031 84.396,245.327 96.216,247.102 104.511 C 248.811 112.507,246.318 132.655,242.423 142.316 C 239.544 149.459,233.189 159.363,227.837 165.049 C 226.032 166.966,221.163 175.361,215.363 186.557 C 211.017 194.945,208.775 200.884,207.174 208.248 L 206.680 210.521 203.511 207.270 C 200.807 204.498,196.212 200.509,195.373 200.207 C 195.147 200.126,194.484 200.945,190.638 206.058 C 189.411 207.689,189.277 207.551,188.821 204.182 C 186.209 184.883,182.088 175.292,171.148 163.056 C 164.617 155.752,158.459 143.882,156.142 134.130 C 155.219 130.249,155.074 129.429,154.577 125.317 C 152.156 105.278,158.977 87.893,176.432 69.609 C 180.492 65.356,180.435 65.586,177.367 65.822 C 169.287 66.443,160.429 71.270,153.566 78.791 L 151.755 80.776 151.755 78.775 C 151.755 76.073,151.801 76.049,146.261 81.628 C 139.376 88.560,135.517 93.517,132.378 99.460 L 130.889 102.280 130.431 101.252 C 129.182 98.450,128.155 95.908,128.155 95.618 C 128.155 94.058,126.690 97.350,125.041 102.616 C 121.842 112.827,119.983 123.451,119.603 133.687 L 119.403 139.069 115.724 139.585 C 98.563 141.991,87.636 150.966,84.981 164.837 C 80.135 190.166,107.150 210.550,129.213 198.212 C 138.521 193.007,139.974 180.153,131.730 175.947 C 126.791 173.427,121.285 176.686,121.285 182.129 C 121.285 183.733,121.046 183.741,119.643 182.187 C 114.667 176.681,118.336 170.414,126.512 170.453 C 138.662 170.511,144.488 181.348,145.931 206.572 C 146.484 216.240,147.676 220.752,151.656 228.230 C 152.988 230.732,153.005 230.800,152.822 232.884 C 152.237 239.532,156.049 244.884,165.049 250.046 C 175.682 256.146,178.851 259.976,178.211 265.950 C 177.948 268.411,177.219 269.318,175.271 269.610 C 172.766 269.986,171.242 268.741,169.285 264.720 C 167.904 261.885,167.618 261.905,166.951 264.883 C 165.088 273.209,178.070 277.614,181.226 269.726 L 181.693 268.559 200.747 268.559 L 219.801 268.559 219.974 269.249 C 221.155 273.954,228.942 275.394,232.634 271.590 C 234.761 269.398,235.263 266.366,233.984 263.433 L 233.419 262.137 231.980 265.076 C 228.753 271.665,223.237 271.400,223.168 264.654 C 223.116 259.499,226.033 256.203,235.698 250.494 C 245.468 244.723,248.574 240.746,248.658 233.899 C 248.690 231.343,248.765 230.979,249.398 230.314 C 254.765 224.685,255.241 223.188,255.860 210.007 C 256.771 190.621,257.829 184.468,261.493 177.237 C 265.296 169.731,273.202 166.060,279.313 168.961 C 285.259 171.783,286.880 177.953,282.465 180.956 C 280.426 182.343,280.235 182.270,280.425 180.176 C 280.847 175.513,277.999 172.694,272.740 172.572 L 270.375 172.517 268.886 173.983 C 262.105 180.658,263.571 191.210,271.858 195.376 C 288.601 203.795,303.543 198.700,312.613 181.479 C 324.093 159.682,309.416 136.572,284.063 136.526 L 280.897 136.520 280.712 128.081 C 280.363 112.123,278.004 103.217,271.925 94.908 C 270.668 93.188,270.760 93.117,269.613 96.680 L 268.691 99.544 266.608 96.481 C 263.246 91.535,263.145 91.394,260.529 87.968 C 257.547 84.063,252.172 78.602,250.449 77.725 L 249.217 77.099 248.830 78.922 L 248.443 80.745 247.258 79.432 C 237.486 68.601,228.595 62.884,222.757 63.677 C 222.563 63.704,221.968 63.779,221.434 63.846 M203.400 66.507 C 205.445 67.939,205.401 72.794,203.330 74.245 C 201.972 75.196,199.971 74.576,199.137 72.947 C 197.175 69.111,200.325 64.352,203.400 66.507 M231.132 69.211 C 236.407 72.385,244.226 79.716,247.667 84.715 C 249.721 87.699,250.068 87.696,250.635 84.690 C 251.173 81.837,251.186 81.836,253.757 84.595 C 256.829 87.891,260.586 92.928,265.473 100.299 C 267.678 103.626,269.540 106.348,269.609 106.348 C 269.679 106.348,270.167 104.933,270.694 103.204 C 271.220 101.475,271.739 100.165,271.847 100.292 C 272.221 100.734,274.770 106.809,275.390 108.738 C 277.060 113.930,277.599 119.162,277.638 130.545 L 277.670 139.656 281.703 139.555 C 292.115 139.294,299.097 141.640,305.314 147.489 C 317.174 158.645,316.104 176.446,302.767 189.863 C 296.947 195.718,288.849 197.659,280.144 195.284 C 269.710 192.439,266.010 187.983,268.288 181.005 C 269.867 176.169,271.345 174.907,274.391 175.792 C 278.541 176.999,278.592 180.917,274.509 185.000 C 271.498 188.011,271.485 188.000,276.444 186.533 C 284.816 184.057,287.957 181.498,287.966 177.147 C 287.981 170.024,281.438 164.387,273.888 165.017 C 259.885 166.184,252.750 182.063,252.729 212.106 C 252.723 220.128,251.756 223.327,248.171 227.181 L 246.303 229.189 244.540 228.675 C 241.069 227.663,237.377 229.108,236.323 231.889 L 236.012 232.711 223.532 232.706 C 216.669 232.704,210.900 232.603,210.713 232.482 C 210.526 232.362,209.681 230.157,208.835 227.584 C 207.205 222.626,206.707 221.735,204.949 220.625 C 204.179 220.139,203.743 219.580,203.500 218.767 C 203.034 217.215,202.120 216.281,201.066 216.281 C 200.066 216.281,199.896 216.591,199.429 219.265 C 198.799 222.878,198.154 222.104,197.895 217.427 C 197.685 213.624,197.642 213.429,196.844 212.631 C 194.911 210.698,193.816 212.501,192.681 219.487 C 192.460 220.850,192.068 222.007,191.621 222.623 C 190.260 224.495,189.164 226.901,188.659 229.126 C 188.380 230.358,188.030 231.669,187.883 232.039 L 187.615 232.711 176.780 232.706 C 165.184 232.702,165.526 232.741,164.792 231.307 C 163.642 229.063,160.982 227.966,157.964 228.492 C 156.905 228.677,155.871 228.827,155.668 228.827 C 155.298 228.827,153.104 224.407,151.666 220.761 C 149.840 216.135,149.345 213.719,149.062 208.066 C 148.408 194.963,147.318 188.884,144.092 180.341 C 140.275 170.234,131.092 165.320,121.193 168.087 C 116.593 169.373,113.457 175.198,114.828 179.913 C 115.722 182.990,118.926 186.078,123.576 188.345 C 126.191 189.621,125.930 189.627,126.549 188.275 C 126.830 187.659,127.108 187.063,127.165 186.951 C 127.223 186.838,126.855 186.502,126.348 186.204 C 122.493 183.935,124.384 177.450,128.696 178.150 C 135.644 179.277,135.971 189.947,129.201 194.629 C 109.398 208.326,82.071 187.522,88.384 163.555 C 91.703 150.955,104.966 142.196,120.726 142.196 L 122.722 142.196 122.714 135.848 C 122.702 125.468,123.796 118.482,127.631 104.448 L 127.946 103.294 128.910 105.643 C 129.441 106.934,130.133 108.580,130.448 109.301 L 131.021 110.611 131.840 108.126 C 134.298 100.666,138.731 93.895,146.297 86.045 L 148.755 83.495 148.761 86.453 L 148.768 89.410 149.718 88.096 C 154.589 81.357,159.820 76.275,165.149 73.105 C 169.642 70.433,173.187 69.353,170.704 71.413 C 170.172 71.855,166.559 76.126,165.030 78.120 C 144.798 104.516,146.805 140.243,169.980 166.243 C 179.632 177.072,184.468 189.394,186.276 207.767 C 186.567 210.724,186.934 213.312,187.091 213.518 C 187.755 214.384,190.291 213.614,190.291 212.546 C 190.291 212.060,193.157 207.532,194.696 205.586 L 195.948 204.003 199.791 207.827 C 203.415 211.432,204.954 213.129,207.983 216.857 L 209.261 218.430 209.466 214.741 C 209.952 205.996,214.929 192.249,222.103 179.836 C 225.874 173.312,228.528 169.138,230.210 167.088 C 245.198 148.813,248.569 140.002,250.631 113.708 C 251.589 101.481,246.148 88.578,234.045 74.384 C 229.031 68.503,228.462 67.812,228.640 67.812 C 228.731 67.812,229.853 68.441,231.132 69.211 M187.827 78.157 C 188.407 78.313,188.499 78.536,188.499 79.796 L 188.499 81.255 186.970 81.255 C 185.531 81.255,185.452 81.215,185.622 80.583 C 185.721 80.213,185.804 79.473,185.806 78.940 C 185.811 77.910,186.258 77.736,187.827 78.157 M200.687 79.836 C 200.780 81.620,200.510 81.902,199.196 81.398 C 198.813 81.251,198.769 79.399,199.121 78.321 C 199.522 77.097,200.598 78.138,200.687 79.836 M205.825 79.761 C 205.825 81.432,205.779 81.553,205.138 81.553 C 203.780 81.553,203.159 79.483,204.204 78.438 C 205.269 77.373,205.825 77.826,205.825 79.761 M212.659 78.155 C 213.565 78.337,213.592 78.388,213.592 79.948 L 213.592 81.553 211.202 81.553 L 208.813 81.553 208.813 79.761 L 208.813 77.969 210.269 77.969 C 211.070 77.969,212.145 78.053,212.659 78.155 M218.312 78.327 C 219.222 79.237,218.748 81.255,217.625 81.255 L 216.580 81.255 216.580 79.612 C 216.580 77.892,217.325 77.340,218.312 78.327 M195.850 78.740 C 195.750 79.000,195.668 79.672,195.668 80.234 L 195.668 81.255 193.577 81.255 L 191.486 81.255 191.486 79.761 L 191.486 78.267 193.759 78.267 C 195.708 78.267,196.005 78.335,195.850 78.740 M188.382 86.408 C 188.291 87.435,188.141 89.686,188.047 91.412 C 187.537 100.774,184.880 114.091,182.801 117.700 C 182.399 118.396,182.733 113.865,184.920 88.872 C 185.078 87.065,185.209 85.351,185.210 85.063 C 185.212 84.628,185.492 84.541,186.880 84.541 L 188.546 84.541 188.382 86.408 M195.378 85.960 C 195.382 86.740,195.086 93.288,194.720 100.510 L 194.054 113.642 191.064 117.090 C 189.420 118.986,187.935 120.684,187.764 120.862 C 187.593 121.040,186.714 122.046,185.810 123.097 C 184.907 124.147,183.667 125.548,183.055 126.208 L 181.942 127.409 181.934 126.551 C 181.930 126.057,182.556 124.600,183.410 123.115 C 188.077 115.006,191.417 99.144,191.485 84.765 C 191.486 84.642,192.360 84.541,193.428 84.541 L 195.370 84.541 195.378 85.960 M200.747 95.560 L 200.747 106.579 199.196 108.181 C 197.204 110.240,197.281 110.858,197.887 97.685 C 198.523 83.866,198.429 84.541,199.720 84.541 L 200.747 84.541 200.747 95.560 M205.825 96.228 C 205.825 108.901,205.816 108.959,204.310 106.006 C 203.775 104.958,203.734 104.160,203.734 94.709 L 203.734 84.541 204.780 84.541 L 205.825 84.541 205.825 96.228 M214.289 100.299 C 214.572 108.966,214.800 116.566,214.796 117.187 L 214.787 118.318 213.816 117.188 C 213.282 116.566,212.352 115.520,211.749 114.862 C 211.147 114.205,210.239 113.144,209.733 112.506 L 208.813 111.344 208.813 97.942 L 208.813 84.541 211.293 84.541 L 213.774 84.541 214.289 100.299 M219.090 86.258 C 219.188 87.203,219.537 91.337,219.866 95.444 C 220.194 99.552,220.795 107.013,221.201 112.024 C 221.607 117.035,222.019 122.412,222.117 123.973 L 222.294 126.811 220.889 125.317 C 217.780 122.013,218.157 124.261,217.479 104.978 C 217.150 95.627,216.880 87.203,216.880 86.258 L 216.878 84.541 217.894 84.541 L 218.911 84.541 219.090 86.258 M142.660 101.046 C 136.775 107.153,132.428 123.645,133.984 133.965 C 136.101 148.009,147.081 161.409,163.141 169.547 C 165.208 170.594,165.222 170.341,163.193 168.605 C 144.879 152.937,140.014 136.065,144.445 103.574 C 145.115 98.660,145.049 98.566,142.660 101.046 M255.715 99.851 C 255.717 100.056,255.978 102.173,256.296 104.556 C 259.860 131.266,256.456 148.862,245.477 160.476 C 245.274 160.691,244.382 161.715,243.495 162.751 C 241.959 164.545,237.862 168.369,236.310 169.456 C 234.758 170.543,236.055 170.238,238.576 168.924 C 257.707 158.943,268.982 141.193,266.788 124.509 C 265.412 114.043,261.131 103.311,257.108 100.242 C 255.983 99.384,255.712 99.308,255.715 99.851 M203.280 109.709 C 203.596 110.078,206.617 113.544,209.993 117.410 C 217.277 125.751,217.351 125.842,216.131 124.929 C 215.639 124.560,214.630 123.835,213.891 123.318 C 209.501 120.250,202.838 114.087,202.838 113.094 C 202.838 112.939,201.658 113.945,200.216 115.331 C 196.017 119.363,193.869 121.344,191.636 123.244 C 188.778 125.674,185.650 128.059,185.943 127.585 C 186.778 126.234,194.960 117.003,199.552 112.232 C 200.948 110.780,202.136 109.468,202.191 109.315 C 202.349 108.873,202.662 108.986,203.280 109.709 M205.690 120.579 C 209.495 123.926,209.492 123.922,208.006 125.090 C 204.331 127.979,199.484 127.900,195.964 124.894 L 195.220 124.259 198.647 120.979 C 200.532 119.176,202.152 117.700,202.246 117.700 C 202.341 117.700,203.891 118.995,205.690 120.579 M200.302 120.982 L 198.532 122.771 199.548 123.820 L 200.565 124.869 201.344 124.122 C 202.337 123.171,202.754 123.183,203.810 124.195 L 204.665 125.015 205.665 123.857 L 206.665 122.700 204.633 120.947 C 202.160 118.813,202.451 118.811,200.302 120.982 M215.982 128.458 C 217.050 129.213,218.906 130.464,220.106 131.238 L 222.289 132.646 221.692 133.485 C 220.627 134.981,219.189 135.809,214.339 137.719 C 209.166 139.756,206.334 141.442,203.169 144.370 C 201.650 145.776,201.710 145.784,199.644 143.900 C 196.008 140.586,193.046 138.911,188.499 137.599 C 184.975 136.582,184.104 136.208,182.889 135.185 C 181.688 134.174,181.691 134.054,182.941 133.458 C 184.225 132.846,188.823 129.608,190.590 128.071 C 192.676 126.257,192.604 126.260,195.009 127.875 C 200.361 131.468,205.793 131.075,210.696 126.742 L 211.833 125.737 212.937 126.411 C 213.544 126.782,214.914 127.703,215.982 128.458 M159.689 131.591 C 160.303 138.040,162.513 143.473,166.676 148.768 C 167.789 150.183,171.708 154.958,172.218 155.520 C 175.006 158.592,178.794 163.681,179.985 165.957 C 181.414 168.686,181.628 168.871,181.627 167.381 C 181.623 162.359,179.275 155.430,175.741 150.008 C 174.595 148.250,174.216 147.775,165.924 137.685 C 163.142 134.300,160.563 131.141,160.192 130.664 L 159.518 129.798 159.689 131.591 M188.051 133.729 C 189.465 135.037,191.612 136.221,192.571 136.221 C 192.918 136.221,192.990 135.835,192.919 134.354 L 192.830 132.487 189.694 132.417 L 186.557 132.347 188.051 133.729 M198.143 132.911 C 195.266 133.891,194.246 136.551,195.704 139.274 C 196.529 140.816,199.558 139.028,201.074 136.105 L 202.080 134.165 202.417 135.307 C 203.379 138.564,207.306 140.956,208.357 138.924 C 210.703 134.387,204.510 130.740,198.143 132.911 M211.402 132.537 C 211.098 132.841,211.164 135.864,211.479 136.058 C 212.388 136.620,217.506 133.410,217.002 132.595 C 216.817 132.295,211.696 132.242,211.402 132.537 M232.550 134.653 C 231.491 138.466,230.288 141.244,225.987 149.813 C 221.223 159.306,218.117 167.289,219.188 167.289 C 219.437 167.289,222.426 164.282,227.062 159.368 C 235.742 150.168,238.181 141.346,234.012 134.233 C 233.063 132.613,233.120 132.597,232.550 134.653 M178.641 144.145 C 178.641 144.231,179.178 145.151,179.834 146.190 C 183.240 151.584,184.948 156.785,186.713 167.140 C 188.853 179.693,189.142 181.324,189.726 184.167 C 190.282 186.871,191.514 190.997,192.078 192.047 C 193.211 194.155,194.398 176.675,193.597 169.673 C 192.524 160.292,189.889 153.832,185.082 148.800 C 182.827 146.439,178.641 143.414,178.641 144.145 M218.876 148.960 C 218.335 149.501,213.001 161.259,210.900 166.542 C 206.290 178.133,204.276 188.052,205.199 194.623 C 205.509 196.829,206.358 200.015,206.578 199.795 C 206.629 199.743,207.091 197.819,207.604 195.519 C 208.449 191.729,211.097 183.459,213.581 176.848 C 216.332 169.530,217.974 163.924,218.788 159.074 C 219.662 153.865,219.712 148.125,218.876 148.960 M197.162 150.364 C 197.162 150.420,197.436 151.261,197.771 152.231 C 200.219 159.330,200.334 164.204,198.404 179.132 C 197.721 184.414,197.167 189.254,197.174 189.887 L 197.185 191.038 198.517 189.544 C 205.911 181.251,207.250 160.873,200.909 153.134 C 199.646 151.593,197.162 149.756,197.162 150.364 M278.267 150.840 C 259.587 155.006,248.311 171.499,243.474 201.729 C 242.036 210.714,240.628 215.294,238.422 218.165 L 237.488 219.380 237.674 217.600 C 238.292 211.686,235.013 207.324,227.997 204.731 C 227.362 204.496,227.444 204.389,229.192 203.148 C 231.570 201.460,238.770 194.226,240.277 192.010 C 243.960 186.597,242.341 179.500,236.947 177.415 C 229.449 174.517,223.160 179.761,225.376 187.064 C 226.155 189.631,227.028 190.579,227.042 188.872 C 227.067 185.730,230.148 183.448,233.227 184.289 C 235.727 184.973,236.820 188.701,235.360 191.564 C 234.114 194.007,233.898 194.220,225.392 201.449 C 216.135 209.316,213.952 214.581,217.788 219.791 C 219.037 221.488,219.242 221.396,219.045 219.226 C 218.680 215.201,222.528 213.128,226.830 215.031 C 232.316 217.457,230.670 224.081,223.661 227.781 C 220.828 229.276,221.185 229.598,225.187 229.158 C 236.853 227.877,243.621 221.520,245.417 210.157 C 245.677 208.514,246.011 206.632,246.159 205.975 C 246.306 205.317,246.697 203.503,247.026 201.942 C 251.592 180.302,254.555 173.171,262.261 165.271 C 274.243 152.988,296.145 156.807,296.111 171.173 C 296.104 174.115,295.580 175.900,292.922 182.034 C 292.096 183.938,292.657 183.804,296.104 181.271 C 305.024 174.715,305.926 165.335,298.522 156.143 C 294.528 151.185,286.337 149.040,278.267 150.840 M112.970 151.005 C 107.047 152.141,105.111 153.347,102.293 157.659 C 96.515 166.500,96.851 173.612,103.330 179.610 C 105.831 181.925,110.038 184.556,109.595 183.526 C 109.534 183.386,108.846 181.994,108.066 180.433 C 102.035 168.368,107.226 159.462,121.038 158.179 C 132.098 157.152,142.552 165.304,148.650 179.713 C 151.457 186.343,153.048 192.404,155.466 205.676 C 156.593 211.856,156.826 212.954,157.457 215.046 C 160.053 223.656,168.829 229.712,178.202 229.364 L 180.583 229.276 178.342 228.128 C 172.658 225.216,170.488 221.459,172.365 217.780 C 173.460 215.632,176.621 214.156,178.985 214.687 C 182.246 215.419,183.005 216.435,182.705 219.667 L 182.506 221.806 183.403 220.761 C 188.196 215.177,186.366 210.528,175.668 201.108 C 172.949 198.713,170.008 196.073,169.132 195.241 C 164.124 190.482,164.653 184.633,170.092 184.620 C 173.011 184.612,174.020 185.533,174.670 188.798 L 174.937 190.142 175.587 189.104 C 179.313 183.149,174.967 176.145,168.049 176.958 C 161.976 177.672,159.256 180.844,159.585 186.829 C 159.821 191.121,165.176 197.936,172.581 203.365 C 174.019 204.419,174.371 204.807,173.962 204.886 C 168.389 205.971,164.162 211.035,164.155 216.633 C 164.153 219.049,164.118 219.194,163.647 218.768 C 161.996 217.274,159.606 210.811,158.915 205.975 C 154.912 177.964,147.134 162.866,132.338 154.385 C 126.837 151.232,118.956 149.856,112.970 151.005 M177.720 209.456 L 179.686 209.800 177.296 210.617 C 173.117 212.045,172.271 212.527,170.482 214.504 L 168.783 216.383 168.783 215.276 C 168.783 211.095,172.660 208.570,177.720 209.456 M229.504 209.679 C 231.120 210.371,231.974 211.407,232.562 213.389 C 233.343 216.018,233.162 216.197,231.532 214.413 C 229.783 212.499,227.425 211.169,224.345 210.357 C 223.114 210.032,222.308 209.697,222.554 209.612 C 222.801 209.527,223.204 209.390,223.450 209.308 C 224.630 208.915,228.237 209.136,229.504 209.679 M236.292 237.472 C 236.839 240.050,236.710 240.266,232.196 244.356 C 224.874 250.990,222.626 253.613,220.594 257.891 C 219.133 260.967,219.484 260.819,213.881 260.725 L 209.022 260.642 208.981 257.058 C 208.913 250.953,207.020 248.795,202.093 249.203 C 198.280 249.519,196.754 251.679,196.609 256.960 L 196.505 260.792 189.239 260.792 L 181.973 260.792 181.610 259.671 C 180.181 255.255,177.579 251.993,169.962 245.066 C 164.920 240.481,164.589 240.002,165.159 238.101 C 165.345 237.481,165.497 236.686,165.497 236.336 L 165.497 235.698 200.706 235.698 L 235.915 235.698 236.292 237.472 M178.980 240.359 C 177.453 241.439,178.906 245.033,181.272 246.026 C 185.709 247.889,192.965 244.068,190.476 241.179 L 189.743 240.329 185.461 240.328 C 183.107 240.327,180.844 240.222,180.433 240.093 C 179.913 239.931,179.472 240.011,178.980 240.359 M196.639 240.216 C 195.625 241.252,196.551 244.598,198.138 245.630 C 202.289 248.329,210.961 244.383,208.240 241.034 C 207.686 240.353,207.520 240.328,203.385 240.321 C 201.030 240.318,198.633 240.206,198.058 240.075 C 197.330 239.907,196.899 239.950,196.639 240.216 M213.215 240.400 C 211.530 242.262,213.687 245.704,217.006 246.448 C 220.584 247.250,225.486 244.631,225.190 242.075 C 225.040 240.781,223.413 239.825,221.842 240.107 C 220.228 240.398,216.444 240.378,214.932 240.070 C 213.935 239.868,213.646 239.923,213.215 240.400 M204.647 252.436 C 205.763 253.033,206.124 254.305,206.124 257.640 L 206.124 260.792 202.838 260.792 L 199.552 260.792 199.552 257.635 C 199.552 252.881,201.591 250.800,204.647 252.436 M219.211 265.347 L 219.304 266.468 200.765 266.468 L 182.226 266.468 182.226 265.270 L 182.226 264.073 200.672 264.150 L 219.119 264.227 219.211 265.347 M1.718 346.528 C 0.964 347.000,0.908 404.652,1.656 408.705 C 4.913 426.325,18.958 436.443,39.214 435.761 C 57.373 435.149,69.663 425.187,72.828 408.514 C 73.288 406.092,73.338 402.894,73.338 376.251 L 73.338 346.677 69.305 346.694 C 63.487 346.719,60.361 347.786,57.429 350.744 C 54.397 353.804,54.590 351.985,54.317 380.108 C 54.055 407.134,54.114 406.335,52.089 410.376 C 49.509 415.524,44.492 418.086,37.043 418.060 C 28.864 418.032,23.878 414.895,21.240 408.119 L 20.463 406.124 20.308 380.732 C 20.130 351.776,20.327 353.841,17.450 350.734 C 14.497 347.544,4.403 344.846,1.718 346.528 M89.356 347.614 C 89.079 348.222,89.045 358.361,89.208 392.162 L 89.418 435.923 93.178 435.764 C 100.896 435.436,105.736 432.896,107.540 428.229 L 108.232 426.438 108.180 403.734 C 108.138 385.316,108.200 381.126,108.508 381.536 C 108.716 381.815,110.030 383.830,111.426 386.016 C 114.423 390.704,130.949 415.519,133.373 418.969 C 134.297 420.284,135.652 422.233,136.385 423.301 C 141.752 431.124,145.560 434.288,150.921 435.379 C 153.945 435.995,162.276 436.041,162.770 435.445 C 163.012 435.154,163.125 425.095,163.180 399.240 L 163.256 363.438 165.892 362.919 C 172.075 361.702,175.990 354.855,174.568 347.744 L 174.378 346.795 162.245 346.885 C 142.577 347.031,144.137 344.377,144.137 377.693 C 144.137 393.921,144.039 401.676,143.839 401.344 C 143.235 400.343,139.299 394.427,138.225 392.905 C 137.616 392.043,136.647 390.665,136.072 389.843 C 135.497 389.022,134.556 387.677,133.981 386.856 C 133.406 386.034,132.465 384.690,131.889 383.869 C 131.314 383.047,130.373 381.703,129.798 380.881 C 129.223 380.060,128.282 378.715,127.707 377.894 C 127.132 377.072,126.191 375.728,125.616 374.907 C 125.041 374.085,124.100 372.741,123.525 371.919 C 122.950 371.098,122.009 369.754,121.434 368.932 C 120.859 368.111,119.891 366.733,119.284 365.870 C 116.553 361.992,109.026 351.258,107.710 349.365 C 105.800 346.618,106.664 346.836,97.658 346.831 L 89.715 346.826 89.356 347.614 M185.456 347.316 C 181.225 348.615,178.641 353.437,178.641 360.033 L 178.641 363.256 190.889 363.256 L 203.137 363.256 203.137 398.888 C 203.137 430.654,203.187 434.592,203.602 435.184 C 204.252 436.112,221.442 436.243,222.138 435.325 C 222.463 434.897,222.537 428.306,222.545 399.055 L 222.554 363.309 231.591 363.193 C 240.114 363.084,240.724 363.039,242.329 362.404 C 246.528 360.744,249.043 355.605,248.784 349.216 L 248.693 346.975 217.774 346.931 C 191.636 346.894,186.639 346.953,185.456 347.316 M271.049 347.054 C 270.858 347.176,269.874 349.494,268.861 352.205 C 267.849 354.915,266.836 357.603,266.611 358.178 C 266.385 358.753,265.306 361.643,264.213 364.600 C 260.030 375.919,258.342 380.469,257.952 381.479 C 257.729 382.054,256.654 384.944,255.562 387.901 C 254.469 390.859,253.394 393.749,253.172 394.324 C 252.950 394.899,251.874 397.789,250.782 400.747 C 249.690 403.704,248.612 406.594,248.387 407.170 C 248.012 408.130,243.531 420.269,242.267 423.749 C 241.969 424.571,241.043 427.058,240.210 429.276 C 237.514 436.449,237.006 435.936,246.665 435.788 C 258.410 435.607,258.362 435.647,263.494 421.964 L 266.410 414.190 278.239 414.112 C 285.395 414.064,290.067 413.922,290.067 413.752 C 290.067 413.390,286.987 403.900,285.822 400.672 L 284.932 398.208 278.090 398.208 C 274.326 398.208,271.248 398.107,271.249 397.984 C 271.250 397.860,271.869 396.012,272.625 393.876 C 273.381 391.740,274.241 389.253,274.537 388.350 C 274.832 387.446,275.872 384.421,276.847 381.628 C 277.823 378.835,279.004 375.163,279.472 373.467 L 280.323 370.385 285.358 385.715 C 295.831 417.597,300.151 430.109,301.267 431.791 C 303.573 435.266,305.345 435.852,314.180 436.067 C 322.655 436.273,322.994 436.135,321.761 432.975 C 321.232 431.619,320.943 430.838,319.343 426.438 C 319.014 425.534,318.476 424.055,318.148 423.152 C 317.819 422.248,317.294 420.803,316.981 419.940 C 315.738 416.519,314.202 412.343,313.820 411.352 C 313.599 410.777,312.927 408.962,312.327 407.319 C 311.726 405.676,311.054 403.861,310.833 403.286 C 310.612 402.711,309.963 400.963,309.391 399.403 C 308.302 396.426,306.259 390.903,303.785 384.242 C 302.977 382.065,301.643 378.469,300.822 376.251 C 300.000 374.033,298.656 370.403,297.834 368.185 C 294.043 357.948,293.231 355.751,292.260 353.099 C 290.908 349.409,290.357 347.974,290.079 347.423 C 289.832 346.935,271.780 346.584,271.049 347.054 M316.430 350.336 C 316.754 358.596,320.445 362.680,328.030 363.172 L 330.594 363.338 330.454 398.836 C 330.325 431.549,330.353 434.394,330.810 435.091 L 331.306 435.848 340.052 435.848 C 346.456 435.848,348.894 435.752,349.156 435.489 C 349.431 435.214,349.515 426.742,349.515 399.175 L 349.515 363.220 357.356 363.313 L 365.198 363.406 366.952 364.302 C 374.784 368.304,374.832 382.145,367.027 386.109 L 364.675 387.304 359.783 387.409 L 354.892 387.515 354.892 395.661 L 354.892 403.806 357.339 404.020 C 360.474 404.293,361.820 404.841,362.753 406.221 C 363.436 407.233,370.286 420.119,374.052 427.477 C 377.773 434.749,379.860 435.820,390.803 436.069 C 400.530 436.290,400.454 436.344,397.662 431.162 C 396.704 429.385,395.138 426.453,394.181 424.645 C 393.223 422.838,391.368 419.343,390.057 416.878 C 388.746 414.414,386.463 410.045,384.984 407.170 C 382.138 401.640,380.830 399.354,379.920 398.325 C 379.367 397.699,379.375 397.688,381.323 396.420 C 391.260 389.945,395.059 375.188,390.052 362.509 C 387.573 356.234,381.346 350.638,374.309 348.365 C 369.663 346.864,368.856 346.826,341.677 346.826 L 316.293 346.826 316.430 350.336 " stroke="none" fill="#a41424" fill-rule="evenodd"></path><path id="path2" d="M175.493 70.575 L 174.010 72.143 175.579 70.661 C 177.036 69.283,177.284 69.007,177.061 69.007 C 177.014 69.007,176.308 69.712,175.493 70.575 M240.777 72.685 C 240.777 72.736,241.214 73.173,241.748 73.656 L 242.718 74.533 241.841 73.562 C 241.023 72.657,240.777 72.454,240.777 72.685 M243.167 75.075 C 243.167 75.126,243.603 75.563,244.137 76.046 L 245.108 76.923 244.231 75.952 C 243.413 75.047,243.167 74.844,243.167 75.075 M158.012 78.491 L 156.983 79.612 158.103 78.582 C 159.146 77.624,159.361 77.371,159.133 77.371 C 159.083 77.371,158.579 77.875,158.012 78.491 M336.072 79.257 C 336.072 79.308,336.509 79.745,337.043 80.228 L 338.013 81.105 337.136 80.134 C 336.318 79.229,336.072 79.026,336.072 79.257 M145.922 81.628 L 143.839 83.794 146.004 81.711 C 148.016 79.776,148.307 79.462,148.088 79.462 C 148.042 79.462,147.067 80.437,145.922 81.628 M254.668 81.255 C 255.643 82.240,256.509 83.047,256.591 83.047 C 256.673 83.047,255.942 82.240,254.966 81.255 C 253.991 80.269,253.125 79.462,253.043 79.462 C 252.961 79.462,253.692 80.269,254.668 81.255 M350.411 93.055 C 352.460 95.108,354.203 96.789,354.285 96.789 C 354.367 96.789,352.758 95.108,350.709 93.055 C 348.661 91.001,346.917 89.320,346.835 89.320 C 346.753 89.320,348.362 91.001,350.411 93.055 M51.512 92.980 L 50.635 93.951 51.606 93.073 C 52.140 92.591,52.577 92.154,52.577 92.102 C 52.577 91.872,52.330 92.075,51.512 92.980 M346.677 99.477 C 349.795 102.599,352.414 105.153,352.496 105.153 C 352.578 105.153,350.094 102.599,346.975 99.477 C 343.857 96.355,341.238 93.801,341.156 93.801 C 341.074 93.801,343.558 96.355,346.677 99.477 M44.803 99.403 L 42.270 102.016 44.884 99.484 C 47.312 97.132,47.634 96.789,47.417 96.789 C 47.372 96.789,46.196 97.965,44.803 99.403 M55.847 98.805 L 54.817 99.925 55.937 98.896 C 56.553 98.330,57.058 97.826,57.058 97.776 C 57.058 97.547,56.805 97.762,55.847 98.805 M50.028 104.332 L 48.245 106.199 50.112 104.416 C 51.846 102.759,52.116 102.465,51.895 102.465 C 51.849 102.465,51.009 103.305,50.028 104.332 M355.340 108.140 C 356.812 109.619,358.083 110.829,358.165 110.829 C 358.247 110.829,357.110 109.619,355.639 108.140 C 354.167 106.662,352.895 105.452,352.813 105.452 C 352.731 105.452,353.868 106.662,355.340 108.140 M198.786 108.514 L 197.909 109.485 198.880 108.607 C 199.414 108.125,199.851 107.688,199.851 107.636 C 199.851 107.406,199.604 107.609,198.786 108.514 M34.637 109.261 L 33.607 110.381 34.727 109.351 C 35.344 108.785,35.848 108.281,35.848 108.231 C 35.848 108.003,35.595 108.218,34.637 109.261 M199.993 115.385 L 197.610 117.849 200.075 115.466 C 202.364 113.253,202.675 112.920,202.458 112.920 C 202.413 112.920,201.304 114.029,199.993 115.385 M198.492 121.060 L 197.311 122.330 198.581 121.149 C 199.762 120.051,199.988 119.791,199.762 119.791 C 199.713 119.791,199.142 120.362,198.492 121.060 M198.794 122.193 C 198.252 122.792,198.263 122.822,199.414 123.911 L 200.586 125.019 199.569 123.905 C 198.575 122.817,198.564 122.777,199.098 122.187 C 199.399 121.855,199.577 121.583,199.495 121.583 C 199.413 121.583,199.097 121.858,198.794 122.193 M307.381 145.258 C 308.619 146.577,308.887 146.814,308.887 146.589 C 308.887 146.542,308.249 145.903,307.468 145.170 L 306.049 143.839 307.381 145.258 M199.552 148.320 C 201.106 149.881,202.445 151.158,202.527 151.158 C 202.610 151.158,201.405 149.881,199.851 148.320 C 198.296 146.759,196.957 145.482,196.875 145.482 C 196.793 145.482,197.998 146.759,199.552 148.320 M184.615 148.320 C 185.173 148.895,185.696 149.365,185.778 149.365 C 185.860 149.365,185.471 148.895,184.914 148.320 C 184.357 147.745,183.834 147.274,183.751 147.274 C 183.669 147.274,184.058 147.745,184.615 148.320 M92.292 150.187 L 91.262 151.307 92.382 150.277 C 92.999 149.711,93.503 149.207,93.503 149.157 C 93.503 148.929,93.250 149.144,92.292 150.187 M146.079 157.282 C 146.972 158.185,147.769 158.925,147.851 158.925 C 147.933 158.925,147.270 158.185,146.378 157.282 C 145.485 156.378,144.688 155.639,144.606 155.639 C 144.524 155.639,145.187 156.378,146.079 157.282 M253.763 157.804 L 251.680 159.970 253.846 157.887 C 255.858 155.952,256.148 155.639,255.929 155.639 C 255.884 155.639,254.909 156.613,253.763 157.804 M225.975 160.493 L 224.795 161.763 226.064 160.582 C 227.245 159.483,227.471 159.223,227.245 159.223 C 227.196 159.223,226.625 159.795,225.975 160.493 M260.194 160.866 C 259.469 161.606,258.942 162.211,259.024 162.211 C 259.106 162.211,259.767 161.606,260.493 160.866 C 261.219 160.127,261.745 159.522,261.663 159.522 C 261.581 159.522,260.920 160.127,260.194 160.866 M291.860 161.707 C 291.860 161.758,292.296 162.195,292.830 162.677 L 293.801 163.555 292.924 162.584 C 292.106 161.679,291.860 161.476,291.860 161.707 M158.476 164.302 C 159.286 165.123,160.015 165.795,160.097 165.795 C 160.179 165.795,159.584 165.123,158.775 164.302 C 157.966 163.480,157.237 162.808,157.155 162.808 C 157.072 162.808,157.667 163.480,158.476 164.302 M241.366 164.824 L 239.432 166.841 241.449 164.908 C 242.558 163.845,243.465 162.937,243.465 162.891 C 243.465 162.672,243.161 162.952,241.366 164.824 M268.689 173.936 L 267.812 174.907 268.783 174.029 C 269.317 173.547,269.754 173.110,269.754 173.058 C 269.754 172.828,269.507 173.031,268.689 173.936 M119.791 182.375 C 120.348 182.950,120.871 183.420,120.954 183.420 C 121.036 183.420,120.647 182.950,120.090 182.375 C 119.532 181.800,119.009 181.329,118.927 181.329 C 118.845 181.329,119.234 181.800,119.791 182.375 M274.373 184.989 L 272.890 186.557 274.459 185.075 C 275.916 183.697,276.164 183.420,275.941 183.420 C 275.894 183.420,275.188 184.126,274.373 184.989 M95.594 190.441 C 96.486 191.344,97.284 192.084,97.366 192.084 C 97.448 192.084,96.785 191.344,95.892 190.441 C 95.000 189.537,94.203 188.798,94.120 188.798 C 94.038 188.798,94.701 189.537,95.594 190.441 M304.544 192.457 L 303.062 194.025 304.630 192.543 C 305.493 191.728,306.199 191.022,306.199 190.975 C 306.199 190.752,305.922 191.000,304.544 192.457 M168.335 194.473 C 168.976 195.131,169.569 195.668,169.651 195.668 C 169.733 195.668,169.275 195.131,168.633 194.473 C 167.992 193.816,167.399 193.279,167.317 193.279 C 167.235 193.279,167.693 193.816,168.335 194.473 M232.695 194.996 L 231.665 196.117 232.786 195.087 C 233.828 194.129,234.043 193.876,233.815 193.876 C 233.765 193.876,233.261 194.380,232.695 194.996 M166.393 198.208 C 166.950 198.783,167.473 199.253,167.556 199.253 C 167.638 199.253,167.249 198.783,166.692 198.208 C 166.134 197.633,165.611 197.162,165.529 197.162 C 165.447 197.162,165.835 197.633,166.393 198.208 M234.786 198.282 L 233.757 199.403 234.877 198.373 C 235.919 197.415,236.134 197.162,235.906 197.162 C 235.856 197.162,235.352 197.666,234.786 198.282 M179.836 204.724 C 179.836 204.775,180.273 205.212,180.807 205.695 L 181.777 206.572 180.900 205.601 C 180.082 204.696,179.836 204.493,179.836 204.724 M202.689 206.423 C 203.498 207.244,204.227 207.916,204.309 207.916 C 204.391 207.916,203.796 207.244,202.987 206.423 C 202.178 205.601,201.449 204.929,201.367 204.929 C 201.285 204.929,201.879 205.601,202.689 206.423 M200.144 208.290 C 201.866 210.056,203.311 211.501,203.355 211.501 C 203.571 211.501,203.207 211.118,200.224 208.210 L 197.013 205.078 200.144 208.290 M170.706 213.966 L 169.828 214.937 170.799 214.059 C 171.333 213.577,171.770 213.140,171.770 213.088 C 171.770 212.857,171.523 213.061,170.706 213.966 M162.198 223.226 C 162.931 224.007,163.569 224.645,163.617 224.645 C 163.841 224.645,163.604 224.377,162.285 223.139 L 160.866 221.807 162.198 223.226 M173.861 225.093 C 174.418 225.668,174.942 226.139,175.024 226.139 C 175.106 226.139,174.717 225.668,174.160 225.093 C 173.602 224.518,173.079 224.048,172.997 224.048 C 172.915 224.048,173.304 224.518,173.861 225.093 M172.666 247.442 C 172.666 247.494,173.103 247.931,173.637 248.413 L 174.608 249.291 173.731 248.320 C 172.913 247.415,172.666 247.211,172.666 247.442 M175.056 249.832 C 175.056 249.883,175.493 250.320,176.027 250.803 L 176.998 251.680 176.120 250.709 C 175.303 249.804,175.056 249.601,175.056 249.832 M384.615 354.593 C 385.257 355.250,385.849 355.788,385.932 355.788 C 386.014 355.788,385.556 355.250,384.914 354.593 C 384.272 353.936,383.680 353.398,383.598 353.398 C 383.516 353.398,383.974 353.936,384.615 354.593 M24.496 413.592 C 25.053 414.167,25.576 414.638,25.659 414.638 C 25.741 414.638,25.352 414.167,24.795 413.592 C 24.237 413.017,23.714 412.547,23.632 412.547 C 23.550 412.547,23.939 413.017,24.496 413.592 M9.846 425.467 C 10.578 426.247,11.217 426.886,11.265 426.886 C 11.489 426.886,11.252 426.618,9.933 425.380 L 8.514 424.048 9.846 425.467 " stroke="none" fill="#a4142c" fill-rule="evenodd"></path><path id="path3" d="" stroke="none" fill="#64583c" fill-rule="evenodd"></path><path id="path4" d="" stroke="none" fill="#90383c" fill-rule="evenodd"></path></g></svg>